<svg xmlns="http://www.w3.org/2000/svg" width="411" height="130" viewBox="0 0 411 130"><path d="M139.072 9.811h-46.27v85.973h19.54v-70.03h19.229c30.635 0 37.2 17.509 37.2 39.86 0 22.354-6.565 39.86-37.2 39.86H56.74c-30.638 0-37.203-17.508-37.203-39.86s6.564-39.86 37.203-39.86h25.386V9.811h-32.89C14.85 9.811 0 34.82 0 65.613c0 30.791 14.85 55.803 49.236 55.803h89.836c34.388 0 49.237-25.012 49.237-55.803.001-30.793-14.849-55.802-49.237-55.802" fill="#010101"/><path d="M276.75 96.811c-4.343 4.905-11.951 8.664-25.088 8.664-26.588 0-30.561-15.387-30.561-24.558 0-9.711 5.213-17.186 13.641-20.126-6.34-3.345-10.58-10.241-10.58-17.938 0-13.788 9.766-21.383 27.5-21.383h11.906v9.688h-11.906c-11.225 0-16.68 4.456-16.68 13.62 0 7.608 6.233 12.148 16.68 12.148H271.4v-5.575h10.824v5.575h8.008v9.689h-8.008v14.074c0 10.018 6.719 15.098 19.498 15.1h4.287a61.06 61.06 0 0 0 8.288-30.788c0-33.892-27.473-61.365-61.362-61.365-33.891 0-61.366 27.474-61.366 61.365 0 33.89 27.474 61.363 61.366 61.363 18.405 0 34.905-8.114 46.153-20.947-11.522-.472-18.348-4.037-22.338-8.606" fill="#d2242a"/><path d="M231.924 80.689c0 10.018 6.479 15.1 19.258 15.1l.481-.004.483.004c12.778-.002 19.256-5.082 19.256-15.1V66.617h-19.738c-9.006 0-19.74 2.442-19.74 14.072" fill="#d2242a"/><path d="M390.055 61.547v-.309c10.158-4.378 15.944-12.506 15.944-23.761 0-18.601-13.13-27.668-33.138-27.668h-54.24v85.978h19.538V70.615h34.545c11.88 0 18.757 6.252 18.757 17.193 0 11.256-6.877 17.662-18.757 17.662h-54.083v15.945h51.271c28.916 0 41.106-13.6 41.106-31.107.002-15.16-7.346-25.787-20.943-28.761m-20.006-5.001H338.16V25.754h31.889c10.625 0 16.412 4.064 16.412 15.317 0 10.004-7.037 15.475-16.412 15.475" fill="#010101"/></svg>